<?xml version="1.0" encoding="UTF-8"?>
<!DOCTYPE svg PUBLIC "-//W3C//DTD SVG 1.1//EN" "http://www.w3.org/Graphics/SVG/1.1/DTD/svg11.dtd">
<!-- Creator: CorelDRAW 2019 (64-Bit) -->
<svg xmlns="http://www.w3.org/2000/svg" xml:space="preserve" width="9160px" height="2160px" version="1.1" style="shape-rendering:geometricPrecision; text-rendering:geometricPrecision; image-rendering:optimizeQuality; fill-rule:evenodd; clip-rule:evenodd"
viewBox="0 0 9160 2160.12"
 xmlns:xlink="http://www.w3.org/1999/xlink"
 xmlns:xodm="http://www.corel.com/coreldraw/odm/2003">
 <defs>
  <style type="text/css">
   <![CDATA[
    .fil0 {fill:black}
    .fil1 {fill:#00AA13}
   ]]>
  </style>
 </defs>
 <g id="Layer_x0020_1">
  <metadata id="CorelCorpID_0Corel-Layer"/>
  <g id="_2041810522912">
   <path class="fil0" d="M5505.11 2152.25c167.26,16.48 407.35,14.75 527.93,-82.34 63.79,-51.36 91.4,-100.59 109.72,-205.83 25.04,-143.8 12.63,-1329.67 12.63,-1537.5l-334.09 3.98c0,306.61 0,613.22 0,919.82 0,726.29 38.78,568.67 -316.19,603.64l0 298.23zm-2217.52 -1513.44c199.19,-51.57 414.15,41.06 439.06,222.59 32.4,236.08 -45.31,372.48 -245.9,417.25 -486.73,108.63 -609.7,-532.01 -193.16,-639.84zm1592.39 -8.31c459.41,-82.98 554.71,565.46 156.48,654.06 -215.11,47.87 -385.23,-67.07 -422.59,-238.03 -43.38,-198.53 45.57,-376.19 266.11,-416.03zm-607.91 389.23c35.66,381.89 367.52,587.97 728.81,568.14 367.1,-20.16 645.72,-294.89 619.94,-683.57 -53.63,-808.52 -1429.71,-751.33 -1348.75,115.43zm-527.56 -552.71c-166.77,-138.54 -466.13,-197.38 -705.11,-73.15 -593.89,308.71 -380.78,1274.09 409.5,1183.07 191.32,-22.03 231.57,-102.08 299.2,-137.31 4.41,93.1 -2.96,189.5 -44.99,263.54 -29.01,51.11 -100.58,107.57 -188.13,128.28 -245.64,58.12 -357.16,-30.66 -495.59,-123.15l-207.87 201.6c25.22,45.91 67.15,72.57 116.67,105.34 306.07,202.5 802.6,203.34 1042.62,-130.17 132.43,-184.02 96.69,-487.59 96.69,-736.13 0,-273.99 0,-547.98 0,-821.97l-323.42 0.01 0.43 140.04zm2947.21 362.98c51.14,-319.97 610.45,-301.09 638.67,0l-638.67 0zm969.23 237.13c0,-350.29 -119.57,-643.37 -491.92,-721.49 -826.45,-173.39 -1114.66,891.56 -447.91,1180.28 322.73,139.75 729.38,37.48 872.94,-174.93 -38.04,-41.93 -173.6,-134.49 -227.01,-158.09 -188.8,210.61 -626.29,154.6 -682.02,-125.65l975.92 -0.12zm940.21 -223.38l549.68 -508.2 -435.43 -9.87 -536.39 503.14 2.9 -827.59 -323.35 -1.23 3.59 1591.73 316.13 0 1.01 -343.26 211.04 -182.71 416.8 525.97 352.86 -2.86 -136.19 -181.6 -392.51 -512.33 -30.14 -51.19z"/>
   <circle class="fil1" cx="1074.54" cy="1080.49" r="407.4"/>
   <path class="fil1" d="M901.43 1926.55l0.03 -0.1c28.23,-97.13 -17.68,-198.5 -109.29,-241.36 -227.3,-106.34 -384.77,-337.08 -384.77,-604.6 0,-368.45 298.69,-667.14 667.14,-667.14 368.44,0 667.13,298.69 667.13,667.14 0,265.61 -155.22,494.97 -379.9,602.3 -94.07,44.94 -138.83,152.21 -104.6,250.68l0.03 0.1c19.73,56.74 58.55,97.99 114,121.12 55.45,23.12 112.08,21.69 166.28,-4.23 361.72,-172.95 611.59,-542.28 611.59,-969.97 0,-593.45 -481.09,-1074.54 -1074.53,-1074.54 -593.45,0 -1074.54,481.09 -1074.54,1074.54 0,430.77 253.5,802.35 619.45,973.69 55.82,26.13 114.21,26.5 170.36,1.09 56.15,-25.41 94.42,-69.54 111.62,-128.72z"/>
  </g>
 </g>
</svg>
