<svg width="80" height="80" viewBox="0 0 80 80" fill="none" xmlns="http://www.w3.org/2000/svg">
<g clip-path="url(#clip0)">
<path d="M78.8281 77.6563H74.99V61.5488C75.757 60.8744 76.2425 59.887 76.2425 58.7878C76.2425 56.7603 74.593 55.1109 72.5656 55.1109H64.8989L63.715 36.1694C63.6764 35.5517 63.1642 35.0706 62.5455 35.0706H57.5353C56.9166 35.0706 56.4044 35.5517 56.3658 36.1694L55.1819 55.1109H52.3736L51.1897 36.1694C51.1511 35.5517 50.6389 35.0706 50.0202 35.0706H45.0102C44.3914 35.0706 43.8792 35.5517 43.8406 36.1694L42.6567 55.1109H39.8484L38.6645 36.1694C38.6259 35.5517 38.1138 35.0706 37.495 35.0706H32.485C31.8663 35.0706 31.3541 35.5517 31.3155 36.1694L30.1316 55.1109H26.8675L26.1416 22.4388C26.1275 21.8019 25.607 21.293 24.97 21.293H17.4548C16.8178 21.293 16.2973 21.8019 16.2833 22.4388L15.4459 60.1211H6.18187C4.15438 60.1211 2.505 61.7706 2.505 63.798C2.505 64.8972 2.99047 65.8845 3.7575 66.5589V77.6563H1.17188C0.524687 77.6563 0 78.1809 0 78.8281C0 79.4753 0.524687 80 1.17188 80H78.8281C79.4753 80 80 79.4753 80 78.8281C80 78.1809 79.4753 77.6563 78.8281 77.6563ZM15.3342 65.1313H11.1925C10.5453 65.1313 10.0206 65.6559 10.0206 66.3031C10.0206 66.9503 10.5453 67.475 11.1925 67.475H15.2822L15.0559 77.6563H6.10125V67.4728C6.12813 67.4734 6.15484 67.4748 6.18187 67.4748C6.82906 67.4748 7.35375 66.9502 7.35375 66.303C7.35375 65.6558 6.82906 65.1311 6.18187 65.1311C5.44672 65.1311 4.84875 64.533 4.84875 63.798C4.84875 63.0628 5.44688 62.4648 6.18187 62.4648H15.3934L15.3342 65.1313ZM58.6361 37.4144H61.4444L62.5505 55.1109H57.5302L58.6361 37.4144ZM46.1109 37.4144H48.9192L50.0253 55.1109H45.005L46.1109 37.4144ZM33.5858 37.4144H36.3941L37.5 55.1109H32.4797L33.5858 37.4144ZM20.0405 77.6563H17.4005L18.6006 23.6366H23.8236L24.5231 55.1109H22.4648C20.4373 55.1109 18.7878 56.7605 18.7878 58.7878C18.7878 59.887 19.2733 60.8744 20.0405 61.5488V77.6563ZM72.5656 60.1209H70.0606C69.4134 60.1209 68.8887 60.6456 68.8887 61.2928C68.8887 61.94 69.4134 62.4647 70.0606 62.4647H72.5656C72.5927 62.4647 72.6194 62.4631 72.6462 62.4627V77.6563H22.3841V62.4627C22.4109 62.4633 22.4377 62.4647 22.4647 62.4647H65.0514C65.6986 62.4647 66.2233 61.94 66.2233 61.2928C66.2233 60.6456 65.6986 60.1209 65.0514 60.1209H22.4647C21.7295 60.1209 21.1314 59.5228 21.1314 58.7878C21.1314 58.0528 21.7295 57.4547 22.4647 57.4547H72.5655C73.3006 57.4547 73.8988 58.0527 73.8988 58.7878C73.8988 59.523 73.3006 60.1209 72.5656 60.1209Z" fill="#FE5A0E"/>
<path d="M65.0505 0C61.5202 0 58.1545 1.23203 55.4641 3.48969C53.5325 2.04031 51.1916 1.2525 48.7677 1.2525C45.8252 1.2525 43.0161 2.41422 40.9281 4.46813C39.8458 4.00141 38.675 3.7575 37.495 3.7575C34.0109 3.7575 30.9052 5.84359 29.542 8.96562C29.0717 8.83391 28.5902 8.7675 28.1011 8.7675C25.6803 8.7675 23.5986 10.3417 22.855 12.5469C22.7255 12.5325 22.5952 12.5252 22.4647 12.5252C20.4372 12.5252 18.7877 14.1747 18.7877 16.202C18.7878 16.8494 19.3125 17.3741 19.9597 17.3741C20.6069 17.3741 21.1316 16.8494 21.1316 16.2022C21.1316 15.467 21.7297 14.8691 22.4648 14.8691C22.6973 14.8691 22.9253 14.9348 23.1422 15.0647C23.4934 15.2748 23.9288 15.2864 24.2908 15.0956C24.6527 14.9047 24.8889 14.5387 24.9136 14.1302C25.0163 12.4375 26.4164 11.1116 28.1009 11.1116C28.6336 11.1116 29.1594 11.2555 29.6634 11.5394C29.9792 11.7173 30.36 11.7389 30.6942 11.5978C31.0284 11.4567 31.2783 11.1689 31.3713 10.8183C32.107 8.04109 34.6252 6.10141 37.4948 6.10141C38.5823 6.10141 39.6597 6.38578 40.6103 6.92359C41.0963 7.19859 41.7092 7.0925 42.0742 6.66969C43.7611 4.71656 46.2008 3.59641 48.7675 3.59641C50.962 3.59641 53.072 4.41563 54.7086 5.90297C55.1653 6.31797 55.8656 6.30781 56.31 5.87953C58.6756 3.59938 61.7797 2.34375 65.0505 2.34375C72.0014 2.34375 77.6563 7.99875 77.6563 14.9495C77.6563 21.9003 72.0014 27.5553 65.0505 27.5553C60.4356 27.5553 56.1933 25.0356 53.9791 20.9795C53.6838 20.4386 53.0198 20.2189 52.4602 20.4767C51.2848 21.0181 50.0425 21.2927 48.7677 21.2927C46.2009 21.2927 43.7613 20.1725 42.0744 18.2194C41.7094 17.7967 41.0966 17.6905 40.6105 17.9655C39.6598 18.5033 38.5825 18.7877 37.495 18.7877C35.5147 18.7877 33.6822 17.8809 32.4677 16.3C32.247 16.013 31.9063 15.8439 31.5442 15.842C31.5422 15.842 31.5403 15.842 31.5384 15.842C31.1786 15.842 30.8384 16.0075 30.6163 16.2908C29.9963 17.0816 29.0795 17.535 28.1011 17.535C27.4539 17.535 26.9292 18.0597 26.9292 18.7069C26.9292 19.3541 27.4539 19.8787 28.1011 19.8787C29.3431 19.8787 30.5244 19.4638 31.4869 18.7109C33.0948 20.2622 35.2233 21.1313 37.495 21.1313C38.675 21.1313 39.8458 20.8873 40.9281 20.4208C43.0161 22.4747 45.8253 23.6364 48.7677 23.6364C50.0306 23.6364 51.2672 23.4244 52.4563 23.0052C55.1944 27.2825 59.9288 29.8991 65.0505 29.8991C73.2938 29.8991 80 23.1927 80 14.9495C80 6.70641 73.2938 0 65.0505 0Z" fill="#FE5A0E"/>
<path d="M29.9798 65.1311C29.3326 65.1311 28.808 65.6558 28.808 66.303V68.808C28.808 69.4552 29.3326 69.9799 29.9798 69.9799C30.627 69.9799 31.1517 69.4552 31.1517 68.808V66.303C31.1517 65.6558 30.627 65.1311 29.9798 65.1311Z" fill="#FE5A0E"/>
<path d="M34.99 65.1311C34.3428 65.1311 33.8181 65.6558 33.8181 66.303V68.808C33.8181 69.4552 34.3428 69.9799 34.99 69.9799C35.6372 69.9799 36.1619 69.4552 36.1619 68.808V66.303C36.1619 65.6558 35.6372 65.1311 34.99 65.1311Z" fill="#FE5A0E"/>
<path d="M40 65.1311C39.3528 65.1311 38.8281 65.6558 38.8281 66.303V68.808C38.8281 69.4552 39.3528 69.9799 40 69.9799C40.6472 69.9799 41.1719 69.4552 41.1719 68.808V66.303C41.1719 65.6558 40.6472 65.1311 40 65.1311Z" fill="#FE5A0E"/>
<path d="M45.01 65.1311C44.3628 65.1311 43.8381 65.6558 43.8381 66.303V68.808C43.8381 69.4552 44.3628 69.9799 45.01 69.9799C45.6572 69.9799 46.1819 69.4552 46.1819 68.808V66.303C46.1819 65.6558 45.6574 65.1311 45.01 65.1311Z" fill="#FE5A0E"/>
<path d="M50.0201 65.1311C49.373 65.1311 48.8483 65.6558 48.8483 66.303V68.808C48.8483 69.4552 49.373 69.9799 50.0201 69.9799C50.6673 69.9799 51.192 69.4552 51.192 68.808V66.303C51.192 65.6558 50.6673 65.1311 50.0201 65.1311Z" fill="#FE5A0E"/>
<path d="M55.0302 65.1311C54.383 65.1311 53.8583 65.6558 53.8583 66.303V68.808C53.8583 69.4552 54.383 69.9799 55.0302 69.9799C55.6773 69.9799 56.202 69.4552 56.202 68.808V66.303C56.202 65.6558 55.6773 65.1311 55.0302 65.1311Z" fill="#FE5A0E"/>
<path d="M60.0403 65.1311C59.3931 65.1311 58.8684 65.6558 58.8684 66.303V68.808C58.8684 69.4552 59.3931 69.9799 60.0403 69.9799C60.6875 69.9799 61.2122 69.4552 61.2122 68.808V66.303C61.2122 65.6558 60.6875 65.1311 60.0403 65.1311Z" fill="#FE5A0E"/>
<path d="M65.0505 65.1311C64.4033 65.1311 63.8786 65.6558 63.8786 66.303V68.808C63.8786 69.4552 64.4033 69.9799 65.0505 69.9799C65.6977 69.9799 66.2224 69.4552 66.2224 68.808V66.303C66.2224 65.6558 65.6977 65.1311 65.0505 65.1311Z" fill="#FE5A0E"/>
</g>
<defs>
<clipPath id="clip0">
<rect width="80" height="80" fill="white"/>
</clipPath>
</defs>
</svg>
